<svg width="20" height="20" viewBox="0 0 20 20" fill="none" xmlns="http://www.w3.org/2000/svg">
<g id="Icon">
<path id="Vector" d="M16.2667 6.025L16.275 6.01667L13.175 2.91667L12.2917 3.8L14.05 5.55833C13.2667 5.85833 12.7083 6.60833 12.7083 7.5C12.7083 8.65 13.6417 9.58333 14.7917 9.58333C15.0917 9.58333 15.3667 9.51667 15.625 9.40833V15.4167C15.625 15.875 15.25 16.25 14.7917 16.25C14.3333 16.25 13.9583 15.875 13.9583 15.4167V11.6667C13.9583 10.75 13.2083 10 12.2917 10H11.4583V4.16667C11.4583 3.25 10.7083 2.5 9.79167 2.5H4.79167C3.875 2.5 3.125 3.25 3.125 4.16667V17.5H11.4583V11.25H12.7083V15.4167C12.7083 16.5667 13.6417 17.5 14.7917 17.5C15.9417 17.5 16.875 16.5667 16.875 15.4167V7.5C16.875 6.925 16.6417 6.4 16.2667 6.025ZM9.79167 8.33333H4.79167V4.16667H9.79167V8.33333ZM14.7917 8.33333C14.3333 8.33333 13.9583 7.95833 13.9583 7.5C13.9583 7.04167 14.3333 6.66667 14.7917 6.66667C15.25 6.66667 15.625 7.04167 15.625 7.5C15.625 7.95833 15.25 8.33333 14.7917 8.33333Z" fill="white"/>
</g>
</svg>
