<svg width="20" height="20" viewBox="0 0 20 20" fill="none" xmlns="http://www.w3.org/2000/svg">
<g id="Icon">
<path id="Vector" d="M16.6667 10.8333C17.125 10.8333 17.5 10.4583 17.5 10C17.5 9.54167 17.125 9.16667 16.6667 9.16667H15.8333V4.16667H16.6667C17.125 4.16667 17.5 3.79167 17.5 3.33333C17.5 2.875 17.125 2.5 16.6667 2.5H3.33333C2.875 2.5 2.5 2.875 2.5 3.33333C2.5 3.79167 2.875 4.16667 3.33333 4.16667H4.16667V9.16667H3.33333C2.875 9.16667 2.5 9.54167 2.5 10C2.5 10.4583 2.875 10.8333 3.33333 10.8333H4.16667V15.8333H3.33333C2.875 15.8333 2.5 16.2083 2.5 16.6667C2.5 17.125 2.875 17.5 3.33333 17.5H16.6667C17.125 17.5 17.5 17.125 17.5 16.6667C17.5 16.2083 17.125 15.8333 16.6667 15.8333H15.8333V10.8333H16.6667ZM10 13.3333C8.61667 13.3333 7.5 12.2333 7.5 10.875C7.5 9.79167 7.93333 9.48333 10 7.08333C12.0583 9.46667 12.5 9.78333 12.5 10.875C12.5 12.2333 11.3833 13.3333 10 13.3333Z" fill="white"/>
</g>
</svg>
