<svg width="20" height="20" viewBox="0 0 20 20" fill="none" xmlns="http://www.w3.org/2000/svg">
<g id="Icon">
<path id="Vector" d="M16.666 17.4997C15.5077 17.4997 14.3493 17.108 13.3327 16.3997C11.2993 17.8247 8.69935 17.8247 6.66602 16.3997C5.64935 17.108 4.49102 17.4997 3.33268 17.4997H1.66602V19.1663H3.33268C4.48268 19.1663 5.61602 18.8747 6.66602 18.3413C8.76602 19.4163 11.2327 19.4163 13.3327 18.3413C14.3827 18.883 15.516 19.1663 16.666 19.1663H18.3327V17.4997H16.666ZM3.29102 15.833H3.33268C4.66602 15.833 5.84935 15.0997 6.66602 14.1663C7.48268 15.0997 8.66602 15.833 9.99935 15.833C11.3327 15.833 12.516 15.0997 13.3327 14.1663C14.1493 15.0997 15.3327 15.833 16.666 15.833H16.7077L18.291 10.2663C18.3827 9.95801 18.3244 9.38301 17.741 9.19967L16.666 8.84967V4.99967C16.666 4.08301 15.916 3.33301 14.9993 3.33301H12.4993V0.833008H7.49935V3.33301H4.99935C4.08268 3.33301 3.33268 4.08301 3.33268 4.99967V8.84967L2.25768 9.19967C1.73268 9.35801 1.58268 9.89967 1.70768 10.2663L3.29102 15.833ZM4.99935 4.99967H14.9993V8.30801L9.99935 6.66634L4.99935 8.30801V4.99967Z" fill="white"/>
</g>
</svg>
